<mxfile><diagram name="ERD"><mxGraphModel><root><mxCell id="0" /><mxCell id="1" parent="0" /><mxCell id="2" value="Users" style="shape=swimlane;startSize=30;swimlaneLine=1;" vertex="1" parent="1"><mxGeometry x="40" y="40" width="160" height="90" as="geometry" /></mxCell><mxCell id="3" value="id" style="text;html=1;align=left;verticalAlign=middle;spacingLeft=4;" vertex="1" parent="2"><mxGeometry x="0" y="30" width="160" height="20" as="geometry" /></mxCell><mxCell id="4" value="username" style="text;html=1;align=left;verticalAlign=middle;spacingLeft=4;" vertex="1" parent="2"><mxGeometry x="0" y="50" width="160" height="20" as="geometry" /></mxCell><mxCell id="5" value="email" style="text;html=1;align=left;verticalAlign=middle;spacingLeft=4;" vertex="1" parent="2"><mxGeometry x="0" y="70" width="160" height="20" as="geometry" /></mxCell><mxCell id="6" value="Orders" style="shape=swimlane;startSize=30;swimlaneLine=1;" vertex="1" parent="1"><mxGeometry x="260" y="40" width="160" height="270" as="geometry" /></mxCell><mxCell id="7" value="order_id" style="text;html=1;align=left;verticalAlign=middle;spacingLeft=4;" vertex="1" parent="6"><mxGeometry x="0" y="30" width="160" height="20" as="geometry" /></mxCell><mxCell id="8" value="user_id" style="text;html=1;align=left;verticalAlign=middle;spacingLeft=4;" vertex="1" parent="6"><mxGeometry x="0" y="50" width="160" height="20" as="geometry" /></mxCell><mxCell id="9" value="amount" style="text;html=1;align=left;verticalAlign=middle;spacingLeft=4;" vertex="1" parent="6"><mxGeometry x="0" y="70" width="160" height="20" as="geometry" /></mxCell><mxCell id="10" value="date" style="text;html=1;align=left;verticalAlign=middle;spacingLeft=4;" vertex="1" parent="6"><mxGeometry x="0" y="90" width="160" height="20" as="geometry" /></mxCell><mxCell id="11" value="order_id" style="text;html=1;align=left;verticalAlign=middle;spacingLeft=4;" vertex="1" parent="6"><mxGeometry x="0" y="110" width="160" height="20" as="geometry" /></mxCell><mxCell id="12" value="user_id" style="text;html=1;align=left;verticalAlign=middle;spacingLeft=4;" vertex="1" parent="6"><mxGeometry x="0" y="130" width="160" height="20" as="geometry" /></mxCell><mxCell id="13" value="amount" style="text;html=1;align=left;verticalAlign=middle;spacingLeft=4;" vertex="1" parent="6"><mxGeometry x="0" y="150" width="160" height="20" as="geometry" /></mxCell><mxCell id="14" value="date" style="text;html=1;align=left;verticalAlign=middle;spacingLeft=4;" vertex="1" parent="6"><mxGeometry x="0" y="170" width="160" height="20" as="geometry" /></mxCell><mxCell id="15" value="order_id" style="text;html=1;align=left;verticalAlign=middle;spacingLeft=4;" vertex="1" parent="6"><mxGeometry x="0" y="190" width="160" height="20" as="geometry" /></mxCell><mxCell id="16" value="user_id" style="text;html=1;align=left;verticalAlign=middle;spacingLeft=4;" vertex="1" parent="6"><mxGeometry x="0" y="210" width="160" height="20" as="geometry" /></mxCell><mxCell id="17" value="amount" style="text;html=1;align=left;verticalAlign=middle;spacingLeft=4;" vertex="1" parent="6"><mxGeometry x="0" y="230" width="160" height="20" as="geometry" /></mxCell><mxCell id="18" value="date" style="text;html=1;align=left;verticalAlign=middle;spacingLeft=4;" vertex="1" parent="6"><mxGeometry x="0" y="250" width="160" height="20" as="geometry" /></mxCell><mxCell id="19" value="Products" style="shape=swimlane;startSize=30;swimlaneLine=1;" vertex="1" parent="1"><mxGeometry x="480" y="40" width="160" height="90" as="geometry" /></mxCell><mxCell id="20" value="product_id" style="text;html=1;align=left;verticalAlign=middle;spacingLeft=4;" vertex="1" parent="19"><mxGeometry x="0" y="30" width="160" height="20" as="geometry" /></mxCell><mxCell id="21" value="name" style="text;html=1;align=left;verticalAlign=middle;spacingLeft=4;" vertex="1" parent="19"><mxGeometry x="0" y="50" width="160" height="20" as="geometry" /></mxCell><mxCell id="22" value="price" style="text;html=1;align=left;verticalAlign=middle;spacingLeft=4;" vertex="1" parent="19"><mxGeometry x="0" y="70" width="160" height="20" as="geometry" /></mxCell></root></mxGraphModel></diagram></mxfile>